<svg width="88" height="88" viewBox="0 0 88 88" fill="none" xmlns="http://www.w3.org/2000/svg">
<circle cx="44" cy="44" r="44" fill="#F8F7F8"/>
<path d="M18 64.5641V31.9487H70V64.5641C70 67.5539 67.5368 70 64.5263 70H23.4737C20.4632 70 18 67.5539 18 64.5641Z" fill="#E6E4E7"/>
<path d="M70 26.5128V34.6667H18V26.5128C18 23.5231 20.4632 21.0769 23.4737 21.0769H64.5263C67.5368 21.0769 70 23.5231 70 26.5128Z" fill="#F44336"/>
<path d="M56.3157 30.5897C58.583 30.5897 60.421 28.7644 60.421 26.5128C60.421 24.2612 58.583 22.4359 56.3157 22.4359C54.0484 22.4359 52.2104 24.2612 52.2104 26.5128C52.2104 28.7644 54.0484 30.5897 56.3157 30.5897Z" fill="#B71C1C"/>
<path d="M31.6844 30.5897C33.9516 30.5897 35.7896 28.7644 35.7896 26.5128C35.7896 24.2612 33.9516 22.4359 31.6844 22.4359C29.4171 22.4359 27.5791 24.2612 27.5791 26.5128C27.5791 28.7644 29.4171 30.5897 31.6844 30.5897Z" fill="#B71C1C"/>
<path d="M56.3157 17C54.8104 17 53.5788 18.2231 53.5788 19.7179V26.5128C53.5788 28.0077 54.8104 29.2308 56.3157 29.2308C57.8209 29.2308 59.0525 28.0077 59.0525 26.5128V19.7179C59.0525 18.2231 57.8209 17 56.3157 17ZM31.6841 17C30.1788 17 28.9473 18.2231 28.9473 19.7179V26.5128C28.9473 28.0077 30.1788 29.2308 31.6841 29.2308C33.1894 29.2308 34.4209 28.0077 34.4209 26.5128V19.7179C34.4209 18.2231 33.1894 17 31.6841 17ZM28.9473 41.4615H37.1578V49.6154H28.9473V41.4615ZM39.8946 41.4615H48.1052V49.6154H39.8946V41.4615ZM50.842 41.4615H59.0525V49.6154H50.842V41.4615ZM28.9473 52.3333H37.1578V60.4872H28.9473V52.3333ZM39.8946 52.3333H48.1052V60.4872H39.8946V52.3333Z" fill="#C0BCC2"/>
<path d="M50.8423 52.3333H59.0528V60.4872H50.8423V52.3333Z" fill="#F44336"/>
</svg>
